<?xml version="1.0" encoding="UTF-8" standalone="yes"?>
<svg width="45.596382mm" height="17.991838mm" viewBox="0 0 45.596382 17.991838" version="1.1" id="svg5" inkscape:version="1.2.2 (732a01da63, 2022-12-09)" sodipodi:docname="nazwa_wektor.svg" inkscape:export-filename="M:\Mój dysk\RK\Firma\Marketing\Broszura email\nazwa_wektor-2.png" inkscape:export-xdpi="96" inkscape:export-ydpi="96" xmlns:inkscape="http://www.inkscape.org/namespaces/inkscape" xmlns:sodipodi="http://sodipodi.sourceforge.net/DTD/sodipodi-0.dtd" xmlns="http://www.w3.org/2000/svg" xmlns:svg="http://www.w3.org/2000/svg">
  <sodipodi:namedview id="namedview7" pagecolor="#505050" bordercolor="#eeeeee" borderopacity="1" inkscape:pageshadow="0" inkscape:pageopacity="0" inkscape:pagecheckerboard="0" inkscape:document-units="mm" showgrid="false" inkscape:zoom="8.5938379" inkscape:cx="86.166391" inkscape:cy="43.985005" inkscape:window-width="1920" inkscape:window-height="1009" inkscape:window-x="-8" inkscape:window-y="-8" inkscape:window-maximized="1" inkscape:current-layer="layer1" inkscape:lockguides="true" showguides="false" inkscape:guide-bbox="true" inkscape:object-paths="true" inkscape:snap-smooth-nodes="false" inkscape:showpageshadow="0" inkscape:deskcolor="#505050">
    <inkscape:grid type="xygrid" id="grid49939" originx="-36.424452" originy="-8.4665741"/>
    <sodipodi:guide position="7,297" orientation="-1,0" id="guide12470" inkscape:label="" inkscape:locked="true" inkscape:color="rgb(0,0,255)"/>
    <sodipodi:guide position="203,297" orientation="-1,0" inkscape:locked="true" id="guide12472" inkscape:label="" inkscape:color="rgb(0,0,255)"/>
    <sodipodi:guide position="87,297" orientation="-1,0" inkscape:locked="true" id="guide12474" inkscape:label="" inkscape:color="rgb(0,0,255)"/>
    <sodipodi:guide position="73,297" orientation="-1,0" inkscape:locked="true" id="guide12476" inkscape:label="" inkscape:color="rgb(0,0,255)"/>
  </sodipodi:namedview>
  <defs id="defs2">
    <rect x="24" y="105" width="254.0582" height="69.159142" id="rect8432"/>
    <rect x="24" y="105" width="251.29335" height="52" id="rect8432-9"/>
    <rect x="24" y="105" width="248" height="52" id="rect45834"/>
    <rect x="24" y="105" width="249.63632" height="201.60806" id="rect59459"/>
    <rect x="24" y="105" width="438.60355" height="36" id="rect141893"/>
    <rect x="24" y="105" width="430" height="36" id="rect159486"/>
    <rect x="24" y="105" width="251.29514" height="132" id="rect172551"/>
    <rect x="24" y="105" width="249.63791" height="41.999996" id="rect172553"/>
    <rect x="24" y="105" width="430" height="36" id="rect181851"/>
    <rect x="24" y="105" width="427.17157" height="64.284271" id="rect181853"/>
    <rect x="24" y="105" width="241" height="130" id="rect2795"/>
    <rect x="24" y="105" width="232" height="73" id="rect2881"/>
    <rect x="24" y="105" width="430" height="36" id="rect30900"/>
    <rect x="24" y="105" width="423.74426" height="172.244" id="rect30902"/>
    <rect x="24" y="105" width="430" height="36" id="rect39281"/>
    <rect x="24" y="105" width="423.74426" height="172.244" id="rect39283"/>
    <rect x="24" y="105" width="430" height="36" id="rect39295"/>
    <rect x="24" y="105" width="438.87448" height="88.793373" id="rect39297"/>
    <rect x="24" y="105" width="430" height="36" id="rect12664"/>
    <rect x="24" y="105" width="430" height="36" id="rect12666"/>
    <rect x="24" y="105" width="430" height="36" id="rect15084"/>
    <rect x="24" y="105" width="430" height="36" id="rect19549"/>
    <rect x="24" y="105" width="438.60355" height="107.0288" id="rect19571"/>
    <rect x="24" y="105" width="254.0582" height="69.159142" id="rect1047"/>
    <rect x="24" y="105" width="232" height="73" id="rect1049"/>
    <rect x="24" y="105" width="438.87448" height="108.79337" id="rect37922"/>
    <rect x="24" y="105" width="438.87448" height="108.79337" id="rect40614"/>
    <rect x="24" y="105" width="438.87448" height="108.79337" id="rect62643"/>
    <rect x="24" y="105" width="438.87448" height="108.79337" id="rect943"/>
    <rect x="24" y="105" width="438.87448" height="108.79337" id="rect1019"/>
    <rect x="24" y="105" width="446.56628" height="169.42226" id="rect1077"/>
    <rect x="24" y="105" width="438.87448" height="108.79337" id="rect959"/>
    <rect x="24" y="105" width="438.87448" height="108.79337" id="rect999"/>
    <rect x="24" y="105" width="438.87448" height="108.79337" id="rect1039"/>
    <clipPath clipPathUnits="userSpaceOnUse" id="clipPath844">
      <path d="M 0,0 H 2483.3333 V 3540.4702 H 0 Z" clip-rule="evenodd" id="path842"/>
    </clipPath>
    <clipPath clipPathUnits="userSpaceOnUse" id="clipPath858">
      <path d="M 0,0 H 2483.3333 V 3512.3215 H 0 Z" clip-rule="evenodd" id="path856"/>
    </clipPath>
    <clipPath clipPathUnits="userSpaceOnUse" id="clipPath870">
      <path d="m 1039.9443,70.605766 h 1443.389 V 3439.0567 h -1443.389 z" clip-rule="evenodd" id="path868"/>
    </clipPath>
    <clipPath clipPathUnits="userSpaceOnUse" id="clipPath882">
      <path d="M 0,0 H 2483.3333 V 3512.3215 H 0 Z" clip-rule="evenodd" id="path880"/>
    </clipPath>
    <clipPath clipPathUnits="userSpaceOnUse" id="clipPath890">
      <path d="M 0,0 H 2483 V 3348 H 0 Z" id="path888"/>
    </clipPath>
    <clipPath clipPathUnits="userSpaceOnUse" id="clipPath894">
      <path d="M -1,0.90547943 H 1039.6397 V 3334.9524 H -1 Z" clip-rule="evenodd" id="path892"/>
    </clipPath>
    <inkscape:path-effect effect="perspective-envelope" up_left_point="-181.16775,21.526253" up_right_point="-152.83769,8.3157334" down_left_point="-181.16775,47.809083" down_right_point="-152.83769,61.019613" id="path-effect8385" is_visible="true" lpeversion="1" deform_type="perspective" horizontal_mirror="false" vertical_mirror="false" overflow_perspective="false"/>
    <inkscape:path-effect effect="perspective-envelope" up_left_point="-150.13959,8.3157234" up_right_point="-121.80952,21.526253" down_left_point="-150.13959,61.019663" down_right_point="-121.80952,47.809133" id="path-effect8391" is_visible="true" lpeversion="1" deform_type="perspective" horizontal_mirror="false" vertical_mirror="false" overflow_perspective="false"/>
  </defs>
  <g inkscape:label="BACKGROUND" inkscape:groupmode="layer" id="layer1" transform="translate(-36.424452,-8.4665742)"/>
  <g inkscape:groupmode="layer" id="layer2" inkscape:label="TEXT" transform="translate(-36.424452,-8.4665742)">
    <g id="g1268" transform="matrix(0.48031716,0,0,0.48031716,89.663811,0.81101168)" style="fill:#ffde59;fill-opacity:1">
      <g id="g1545" inkscape:export-filename="F:\Mój dysk\RK\Firma\Logo\g4619-2.png" inkscape:export-xdpi="96" inkscape:export-ydpi="96" transform="matrix(0.53962031,0,0,0.53962031,-151.48864,-238.48828)" style="fill:#ffde59;fill-opacity:1">
        <g aria-label="proces" id="text15818" style="font-weight:bold;font-size:55.3552px;line-height:1.25;font-family:'Yu Gothic';-inkscape-font-specification:'Yu Gothic, Bold';letter-spacing:0.249098px;fill:#7a0099;fill-opacity:1;stroke-width:0.415163">
          <path d="m 82.027515,472.16805 v 4.4868 c 2.108255,-3.44168 4.94629,-5.16252 8.514106,-5.16252 3.693951,0 6.586044,1.48659 8.676279,4.45977 1.92806,2.77497 2.89209,6.51397 2.89209,11.217 0,5.36974 -1.31541,9.53219 -3.946218,12.48735 -2.144293,2.41459 -4.793126,3.62188 -7.946498,3.62188 -3.477719,0 -6.135562,-1.66678 -7.973528,-5.00035 v 33.05978 h -6.9194 v -59.16971 z m 0.216231,9.89258 v 10.75751 c 1.459561,3.38762 3.504749,5.08143 6.135562,5.08143 2.090235,0 3.720979,-0.96403 4.892232,-2.89209 1.135214,-1.83797 1.702821,-4.3967 1.702821,-7.67621 0,-3.71197 -0.675723,-6.46891 -2.027168,-8.27084 -1.063137,-1.42353 -2.45062,-2.13529 -4.162451,-2.13529 -2.865065,0 -5.045397,1.71183 -6.540996,5.13549 z" id="path20181" sodipodi:nodetypes="ccscscscccccccscscsc" style="fill:#7a0099;fill-opacity:1"/>
          <path d="m 125.44178,471.49233 -0.45949,6.541 q -5.81122,0 -8.62222,7.70324 v 16.81198 h -6.86534 v -30.3805 h 6.54099 v 7.45998 q 2.94615,-8.1357 9.40606,-8.1357 z" id="path20183" style="fill:#7a0099;fill-opacity:1"/>
          <path d="m 143.39481,471.49233 q 6.64911,0 10.40613,4.78412 3.32456,4.24354 3.32456,11.05482 0,7.86541 -4.27057,12.2441 -3.67593,3.75701 -9.51418,3.75701 -6.70317,0 -10.43316,-4.78411 -3.29752,-4.21651 -3.29752,-11.05483 0,-7.83838 4.29759,-12.24409 3.70296,-3.75702 9.48715,-3.75702 z m 0,5.02738 q -6.64911,0 -6.64911,10.86562 0,10.91968 6.59505,10.91968 6.64911,0 6.64911,-10.91968 0,-10.86562 -6.59505,-10.86562 z" id="path20185" style="fill:#7a0099;fill-opacity:1"/>
          <path d="m 188.75516,481.19571 -6.75723,1.54065 q -0.97304,-6.16259 -5.37875,-6.16259 -6.81129,0 -6.81129,10.81156 0,10.86562 6.81129,10.86562 4.81114,0 5.81121,-6.37882 l 6.48694,1.7839 q -1.18927,5.02738 -4.78412,7.51404 -3.10832,2.16231 -7.6762,2.16231 -6.9194,0 -10.59534,-4.75708 -3.18941,-4.16246 -3.18941,-11.08186 0,-7.91947 4.21651,-12.24409 3.6489,-3.75702 9.56824,-3.75702 5.2436,0 8.5141,2.86507 2.83804,2.48665 3.78405,6.83831 z" id="path20187" style="fill:#7a0099;fill-opacity:1"/>
          <path d="m 220.81728,488.87192 h -20.54197 q 0.0541,4.75709 2.21637,7.2978 1.97311,2.29746 5.43281,2.29746 4.89223,0 6.40585,-5.78419 l 6.32477,1.83797 q -2.86507,8.81142 -12.81171,8.81142 -7.27077,0 -11.05482,-4.70303 -3.32455,-4.10839 -3.32455,-11.08185 0,-7.89244 4.32462,-12.27112 3.70296,-3.78405 9.46012,-3.78405 6.43288,0 10.16287,4.676 3.40564,4.24354 3.40564,11.27106 z M 214.006,484.277 q -0.51355,-7.97352 -6.64912,-7.97352 -3.32455,0 -5.16252,2.4326 -1.56767,2.08122 -1.81093,5.54092 z" id="path20189" style="fill:#7a0099;fill-opacity:1"/>
          <path d="m 250.01434,479.24963 -6.59506,1.89202 q -1.13521,-4.89223 -5.40578,-4.89223 -2.32448,0 -3.6489,1.08116 -1.10819,0.86492 -1.10819,2.18934 0,1.91905 1.2163,2.86506 1.13522,0.86493 4.18949,1.67579 l 2.54071,0.67573 q 5.5139,1.45956 7.59513,3.75701 1.83796,2.02717 1.83796,5.48687 0,4.54086 -3.48673,7.02752 -3.21644,2.32448 -8.81142,2.32448 -9.91961,0 -12.67656,-7.59512 l 6.48694,-2.27043 q 1.45956,5.10847 6.35179,5.10847 5.54093,0 5.54093,-3.9192 0,-1.94608 -1.29739,-2.83803 -1.10819,-0.72978 -4.56789,-1.72985 l -2.54071,-0.70275 q -5.27064,-1.40551 -7.21672,-3.67593 -1.70282,-2.00014 -1.70282,-5.56796 0,-4.08136 3.32455,-6.45991 3.05427,-2.18934 8.08165,-2.18934 9.27091,0 11.89272,7.7573 z" id="path20191" style="fill:#7a0099;fill-opacity:1"/>
        </g>
        <g aria-label=".studio" transform="scale(1.164042,0.85907554)" id="text16210" style="font-weight:500;font-size:47.5543px;line-height:1.25;font-family:'Yu Gothic';-inkscape-font-specification:'Yu Gothic, Medium';letter-spacing:1.74369px;fill:#0a1931;fill-opacity:1;stroke-width:0.356657">
          <path d="m 95.686817,609.99592 -3.71518,1.18421 q -1.230653,-4.17957 -5.270911,-4.17957 -2.484526,0 -3.808059,1.09133 -1.137773,0.9288 -1.137773,2.39165 0,1.85759 1.160993,2.73994 1.068114,0.8127 3.831279,1.48607 l 1.950469,0.4644 q 4.434996,1.06812 6.106827,2.83283 1.486072,1.55573 1.486072,4.36533 0,3.43654 -2.623846,5.38701 -2.484526,1.83437 -6.733763,1.83437 -7.476799,0 -9.659467,-5.89784 l 3.761619,-1.34676 q 1.416413,4.38856 5.990728,4.38856 2.995363,0 4.411775,-1.34675 1.091334,-1.02168 1.091334,-2.64707 0,-2.04335 -1.160993,-2.9257 -1.044895,-0.78948 -4.156357,-1.60217 l -1.95047,-0.41796 q -4.272456,-1.09134 -5.828188,-2.85605 -1.300313,-1.50929 -1.300313,-4.17957 0,-3.13469 2.438087,-4.94584 2.298767,-1.67183 6.176486,-1.67183 6.803423,0 8.939651,5.85141 z" id="path1056" style="fill:#0a1931;fill-opacity:1"/>
          <path d="m 110.08534,596.31942 v 8.40559 h 5.80497 v 2.99536 h -5.80497 v 14.97682 q 0,3.94738 3.36688,3.94738 1.74149,0 3.0418,-0.30186 l -0.18576,2.99536 q -1.64861,0.25542 -3.76162,0.25542 -6.26936,0 -6.26936,-6.1997 v -15.67342 h -3.94738 v -2.99536 h 3.94738 v -7.56968 z" id="path1058" style="fill:#0a1931;fill-opacity:1"/>
          <path d="M 142.38638,604.72501 V 629.013 h -3.71518 v -4.45822 q -1.57895,2.48453 -3.99382,3.8545 -2.15945,1.18421 -4.45821,1.18421 -3.20435,0 -5.06194,-1.97369 -1.74149,-1.83437 -1.74149,-4.92261 v -17.97218 h 3.94738 v 16.78797 q 0,4.71363 4.17958,4.71363 1.99691,0 4.04026,-1.53251 1.78793,-1.34675 2.94892,-3.3901 v -16.57899 z" id="path1060" style="fill:#0a1931;fill-opacity:1"/>
          <path d="M 171.66884,593.34727 V 629.013 h -3.76162 v -3.55264 q -2.55419,4.17957 -7.08206,4.17957 -4.41178,0 -7.05884,-3.83128 -2.41487,-3.48298 -2.41487,-8.96287 0,-6.36224 3.0418,-9.84522 2.53097,-2.85605 6.33903,-2.85605 4.45822,0 7.08206,4.13314 v -14.93038 z m -3.8545,18.692 q -2.29877,-4.66719 -6.17649,-4.66719 -3.01858,0 -4.73685,2.71672 -1.60217,2.53097 -1.60217,6.80342 0,4.87618 2.13623,7.4768 1.74149,2.08979 4.38855,2.08979 3.59908,0 5.99073,-4.52787 z" id="path1062" style="fill:#0a1931;fill-opacity:1"/>
          <path d="M 185.97448,604.72501 V 629.013 h -3.90094 v -24.28799 z m 0.44117,-9.38083 v 4.71364 h -4.76007 v -4.71364 z" id="path1064" style="fill:#0a1931;fill-opacity:1"/>
          <path d="m 205.43494,604.19095 q 4.94583,0 7.8251,3.83128 2.5774,3.41332 2.5774,8.82355 0,6.24615 -3.29722,9.77557 -2.80961,3.01858 -7.15172,3.01858 -5.01549,0 -7.89476,-3.8545 -2.53096,-3.3901 -2.53096,-8.80033 0,-6.24614 3.29722,-9.77556 2.8096,-3.01859 7.17494,-3.01859 z m 0,2.99537 q -3.29722,0 -5.01549,2.85604 -1.5093,2.50775 -1.5093,6.84986 0,4.99228 1.95047,7.54646 1.67183,2.20589 4.52788,2.20589 3.274,0 4.96905,-2.83283 1.53251,-2.53096 1.53251,-6.91952 0,-4.96905 -1.95047,-7.50002 -1.67183,-2.20588 -4.50465,-2.20588 z" id="path1066" style="fill:#0a1931;fill-opacity:1"/>
          <path d="m 70.65359,623.83496 v 5.17804 h -5.944287 v -5.17804 z" id="path1224" sodipodi:nodetypes="ccccc" style="fill:#0a1931;fill-opacity:1;stroke-width:0.331391"/>
        </g>
      </g>
    </g>
  </g>
</svg>